<svg width="457" height="111" xmlns="http://www.w3.org/2000/svg">
  <path
    d="M50.826 98.654l.224.004a5.967 5.967 0 015.739 5.74l.004.223-.004.224a5.968 5.968 0 01-5.74 5.739l-.223.004-.224-.004a5.968 5.968 0 010-11.926l.224-.004zM28.795 85.801l.224.004a5.968 5.968 0 015.739 5.74l.004.224-.004.224a5.968 5.968 0 01-5.74 5.739l-.223.004-.224-.004a5.968 5.968 0 010-11.927l.224-.004zm43.757 1.531l.209.005a4.437 4.437 0 014.223 4.217l.005.215-.005.209a4.437 4.437 0 01-4.217 4.223l-.215.005-.209-.005a4.436 4.436 0 010-8.864l.209-.005zM50.826 72.95l.224.004a5.968 5.968 0 015.739 5.74l.004.223-.004.224a5.967 5.967 0 01-5.74 5.739l-.223.004-.224-.004a5.967 5.967 0 010-11.926l.224-.004zm-44.063 0l.224.004a5.968 5.968 0 015.739 5.74l.004.223-.004.224a5.967 5.967 0 01-5.74 5.739l-.223.004-.224-.004a5.967 5.967 0 010-11.926l.224-.004zm87.973 3.366l.168.005a2.754 2.754 0 012.58 2.575l.006.174-.005.168a2.753 2.753 0 01-2.574 2.58l-.175.006-.168-.005a2.753 2.753 0 010-5.498l.168-.005zm72.225-42.258v3.504l-11.315 12.181.33.032c7.003.749 12.376 5.835 12.54 12.743l.003.325-.003.306c-.162 7.324-6.121 12.7-14.424 12.848l-.352.003-.334-.003c-8.097-.16-14.229-6.102-14.866-14.313l-.023-.343-.017-.337h5.311l.004.297c.136 5.726 4.22 9.957 9.59 10.098l.278.004.29-.003c5.296-.122 9.153-3.577 9.29-8.353l.003-.262-.004-.268c-.14-4.886-4.105-8.45-9.459-8.577l-.293-.003-.313.006c-1.058.04-2.242.274-3.1.566l-.247.089-.208.086-1.559-3.849 10.854-11.607v-.574h-18.128v-4.596h26.152zM202.273 34l-11.896 15.858.342-.14a11.221 11.221 0 013.765-.776l.297-.004.34.003c7.889.152 13.567 5.578 13.726 12.952l.003.317-.003.314c-.162 7.719-6.292 13.323-14.802 13.473l-.351.003-.353-.003c-8.563-.153-14.746-5.853-14.913-12.917l-.004-.295.004-.34c.08-3.074 1.236-6.472 3.805-10.109l.291-.405.303-.407 13.212-17.466 6.234-.058zm135.435.058l.417.002c13.585.157 22.62 7.948 22.8 19.859l.003.362-.003.362c-.177 11.793-9.034 19.602-22.39 19.91l-.41.008-.417.003h-12.925V34.058h12.925zm89.051 0l11.209 16.029h.516l11.553-16.029h5.891L441.63 53.133l14.87 21.431h-5.834L438.484 56.58h-.516L426.13 74.564h-5.834l14.527-21.431-13.955-19.075h5.891zm-192 0v40.506h-5.204V41.297h-.573l-9.322 7.125v-6.148l10.924-8.216h4.175zm158.942 0l.368.003c8.423.132 13.999 4.791 14.157 11.978l.003.314-.004.312c-.154 6.519-5.16 11.122-12.185 11.71l-.336.024-.344.02h-.686l14.641 16.145h-6.578l-13.954-15.858h-7.435v15.858h-5.205V34.058h17.558zm-103.006 0l-12.95 40.409h-4.69l12.95-40.409h4.69zm-261.9 26.04l.224.004a5.968 5.968 0 015.739 5.74l.004.223-.004.224a5.967 5.967 0 01-5.74 5.739l-.223.004-.224-.004a5.967 5.967 0 010-11.926l.224-.004zm165.071-6.735h-.31c-5.84.073-9.928 3.823-9.928 8.905 0 5.156 4.027 8.945 9.746 9.075l.434.003.294-.006c5.467-.179 9.4-3.801 9.54-8.853l.003-.277-.004-.268c-.14-4.975-4.212-8.579-9.775-8.579zM72.552 61.934l.209.005a4.438 4.438 0 014.223 4.218l.005.215-.005.209a4.436 4.436 0 01-4.217 4.222l-.215.005-.209-.005a4.436 4.436 0 010-8.864l.209-.005zm265.156-23.28h-7.721v31.313h7.721l.371-.002c10.48-.134 17.536-5.947 17.7-15.35l.002-.334-.003-.331c-.166-9.458-7.44-15.296-18.07-15.296zM50.826 47.553l.224.004a5.967 5.967 0 015.739 5.74l.004.223-.004.224a5.967 5.967 0 01-5.74 5.738l-.223.004-.224-.004a5.967 5.967 0 010-11.925l.224-.004zm-44.063 0l.224.004a5.967 5.967 0 015.739 5.74l.004.223-.004.224a5.967 5.967 0 01-5.74 5.738l-.223.004-.224-.004a5.967 5.967 0 010-11.925l.224-.004zm87.973 3.366l.168.005a2.754 2.754 0 012.58 2.575l.006.174-.005.168a2.754 2.754 0 01-2.574 2.58l-.175.006-.168-.005a2.755 2.755 0 010-5.498l.168-.005zm298.965-12.265h-12.353V54.11h12.353l.313-.003c5.487-.104 8.882-2.963 9.005-7.496l.004-.258-.004-.255c-.126-4.564-3.647-7.444-9.318-7.444zM28.795 35.007l.224.004a5.967 5.967 0 015.739 5.74l.004.223-.004.224a5.967 5.967 0 01-5.74 5.739l-.223.004-.224-.004a5.967 5.967 0 010-11.926l.224-.004zm43.757 1.224l.209.005a4.437 4.437 0 014.223 4.217l.005.215-.005.209a4.437 4.437 0 01-4.217 4.223l-.215.005-.209-.005a4.436 4.436 0 010-8.864l.209-.005zM6.763 22.156l.224.004a5.966 5.966 0 015.739 5.738l.004.224-.004.224a5.967 5.967 0 01-5.74 5.739l-.223.004-.224-.004a5.967 5.967 0 010-11.925l.224-.004zm44.063 1.836l.209.005a4.435 4.435 0 014.223 4.216l.005.215-.005.209a4.436 4.436 0 01-4.217 4.223l-.215.005-.209-.005a4.437 4.437 0 010-8.863l.209-.005zm43.91 1.836l.168.005a2.753 2.753 0 012.58 2.574l.006.174-.005.168a2.754 2.754 0 01-2.574 2.58l-.175.006-.168-.005a2.754 2.754 0 010-5.497l.168-.005zM28.489 11.14l.209.005a4.437 4.437 0 014.223 4.217l.005.215-.005.209a4.437 4.437 0 01-4.217 4.223l-.215.005-.209-.005a4.437 4.437 0 010-8.864l.209-.005zm44.215 1.836l.168.005a2.754 2.754 0 012.582 2.574l.005.174-.005.168a2.754 2.754 0 01-2.575 2.58l-.175.006-.168-.005a2.753 2.753 0 010-5.497l.168-.005zM50.673.124l.168.005a2.754 2.754 0 012.58 2.575l.006.174-.005.168a2.755 2.755 0 01-2.575 2.58l-.174.006-.168-.005a2.755 2.755 0 010-5.498l.168-.005z"
    fill="#FFF" fill-rule="evenodd" /></svg>
