<svg width="24" height="24" viewBox="0 0 24 24" fill="none" xmlns="http://www.w3.org/2000/svg">
<path d="M22.5 0.5H1.5C0.9475 0.5 0.5 0.9475 0.5 1.5V22.5C0.5 23.0525 0.9475 23.5 1.5 23.5H22.5C23.0525 23.5 23.5 23.0525 23.5 22.5V1.5C23.5 0.9475 23.0525 0.5 22.5 0.5ZM19 20C19 20.276 18.776 20.5 18.5 20.5H5.5C5.224 20.5 5 20.276 5 20V19H5.019L5.01 18.993C5.1455 16.6045 6.5095 15.8485 8.501 15.1845C9.5755 14.8265 10.0925 13.933 10.3475 13.1395C8.964 12.5105 8 11.119 8 9.5V8.5C8 6.291 9.791 4.5 12 4.5C14.209 4.5 16 6.291 16 8.5V9.5C16 11.1185 15.037 12.509 13.6545 13.1385C13.912 13.9335 14.4305 14.8275 15.501 15.1845C17.4925 15.8485 18.8545 16.6065 18.99 18.9945L18.9835 19H19V20Z" fill="#0C53B7"/>
</svg>
