<svg width="24" height="24" viewBox="0 0 24 24" fill="none" xmlns="http://www.w3.org/2000/svg">
<path d="M1.5 0.75H5.25V5.25H0.75V1.5C0.75 1.30109 0.829018 1.11032 0.96967 0.96967C1.11032 0.829018 1.30109 0.75 1.5 0.75Z" fill="black" fill-opacity="0.6"/>
<path d="M14.25 0.75H9.75V5.25H14.25V0.75Z" fill="black" fill-opacity="0.6"/>
<path d="M9.75 5.25H5.25V9.75H9.75V5.25Z" fill="black" fill-opacity="0.6"/>
<path d="M18.75 0.75H22.5C22.6989 0.75 22.8897 0.829018 23.0303 0.96967C23.171 1.11032 23.25 1.30109 23.25 1.5V5.25H18.75V0.75Z" fill="black" fill-opacity="0.6"/>
<path d="M5.25 9.75H0.75V14.25H5.25V9.75Z" fill="black" fill-opacity="0.6"/>
<path d="M14.25 9.75H9.75V14.25H14.25V9.75Z" fill="black" fill-opacity="0.6"/>
<path d="M23.25 9.75H18.75V14.25H23.25V9.75Z" fill="black" fill-opacity="0.6"/>
<path d="M0.75 18.75H5.25V23.25H1.5C1.30109 23.25 1.11032 23.171 0.96967 23.0303C0.829018 22.8897 0.75 22.6989 0.75 22.5V18.75Z" fill="black" fill-opacity="0.6"/>
<path d="M14.25 18.75H9.75V23.25H14.25V18.75Z" fill="black" fill-opacity="0.6"/>
<path d="M18.75 18.75H23.25V22.5C23.25 22.6989 23.171 22.8897 23.0303 23.0303C22.8897 23.171 22.6989 23.25 22.5 23.25H18.75V18.75Z" fill="black" fill-opacity="0.6"/>
<path d="M18.75 5.25H14.25V9.75H18.75V5.25Z" fill="black" fill-opacity="0.6"/>
<path d="M9.75 14.25H5.25V18.75H9.75V14.25Z" fill="black" fill-opacity="0.6"/>
<path d="M18.75 14.25H14.25V18.75H18.75V14.25Z" fill="black" fill-opacity="0.6"/>
</svg>
