<svg width="24" height="24" viewBox="0 0 24 24" fill="none" xmlns="http://www.w3.org/2000/svg">
<path d="M21.0797 1.4057C21.9136 1.4057 22.5918 2.08392 22.5918 2.91779C22.5918 3.30579 22.9066 3.62054 23.2947 3.62054C23.6827 3.62054 23.9975 3.30579 23.9975 2.91779C23.9975 1.30884 22.6887 0 21.0797 0C20.6917 0 20.377 0.314758 20.377 0.702759C20.377 1.09094 20.6917 1.4057 21.0797 1.4057Z" fill="#1890FF"/>
<path d="M0.702759 3.62054C1.09094 3.62054 1.4057 3.30579 1.4057 2.91779C1.4057 2.08392 2.08392 1.4057 2.91779 1.4057C3.30579 1.4057 3.62054 1.09094 3.62054 0.702759C3.62054 0.314758 3.30579 0 2.91779 0C1.30884 0 0 1.30884 0 2.91779C0 3.30579 0.314758 3.62054 0.702759 3.62054Z" fill="#1890FF"/>
<path d="M10.8631 1.4057H12.9518C13.34 1.4057 13.6545 1.09094 13.6545 0.702759C13.6545 0.314758 13.34 0 12.9518 0H10.8631C10.4749 0 10.1602 0.314758 10.1602 0.702759C10.1602 1.09094 10.4749 1.4057 10.8631 1.4057Z" fill="#1890FF"/>
<path d="M5.70081 1.4057H7.78967C8.17767 1.4057 8.49243 1.09094 8.49243 0.702759C8.49243 0.314758 8.17767 0 7.78967 0H5.70081C5.31281 0 4.99805 0.314758 4.99805 0.702759C4.99805 1.09094 5.31281 1.4057 5.70081 1.4057Z" fill="#1890FF"/>
<path d="M16.0262 1.4057H18.1149C18.5031 1.4057 18.8176 1.09094 18.8176 0.702759C18.8176 0.314758 18.5031 0 18.1149 0H16.0262C15.638 0 15.3232 0.314758 15.3232 0.702759C15.3232 1.09094 15.638 1.4057 16.0262 1.4057Z" fill="#1890FF"/>
<path d="M2.92072 22.5676C2.08685 22.5676 1.40863 21.8893 1.40863 21.0557C1.40863 20.6675 1.09387 20.3527 0.705689 20.3527C0.317688 20.3527 0.00292969 20.6675 0.00292969 21.0557C0.00292969 22.6644 1.31177 23.9733 2.92072 23.9733C3.30872 23.9733 3.62347 23.6587 3.62347 23.2705C3.62347 22.8823 3.30872 22.5676 2.92072 22.5676Z" fill="#1890FF"/>
<path d="M23.2977 20.3527C22.9095 20.3527 22.5947 20.6675 22.5947 21.0555C22.5947 21.8893 21.9165 22.5676 21.0826 22.5676C20.6946 22.5676 20.3799 22.8823 20.3799 23.2705C20.3799 23.6585 20.6946 23.9733 21.0826 23.9733C22.6916 23.9733 24.0004 22.6644 24.0004 21.0555C24.0004 20.6675 23.6857 20.3527 23.2977 20.3527Z" fill="#1890FF"/>
<path d="M13.1362 22.5676H11.0475C10.6593 22.5676 10.3447 22.8823 10.3447 23.2705C10.3447 23.6587 10.6593 23.9733 11.0475 23.9733H13.1362C13.5244 23.9733 13.8389 23.6587 13.8389 23.2705C13.8389 22.8823 13.5244 22.5676 13.1362 22.5676Z" fill="#1890FF"/>
<path d="M18.2993 22.5676H16.2106C15.8224 22.5676 15.5078 22.8823 15.5078 23.2705C15.5078 23.6587 15.8224 23.9733 16.2106 23.9733H18.2993C18.6874 23.9733 19.0022 23.6587 19.0022 23.2705C19.0022 22.8823 18.6874 22.5676 18.2993 22.5676Z" fill="#1890FF"/>
<path d="M7.97406 22.5676H5.88538C5.49719 22.5676 5.18262 22.8823 5.18262 23.2705C5.18262 23.6587 5.49719 23.9733 5.88538 23.9733H7.97406C8.36224 23.9733 8.677 23.6587 8.677 23.2705C8.677 22.8823 8.36224 22.5676 7.97406 22.5676Z" fill="#1890FF"/>
<path d="M1.42035 11.0325C1.42035 10.6443 1.10559 10.3297 0.717407 10.3297C0.329224 10.3297 0.0146484 10.6443 0.0146484 11.0325V13.1213C0.0146484 13.5093 0.329224 13.8241 0.717407 13.8241C1.10559 13.8241 1.42035 13.5093 1.42035 13.1213V11.0325Z" fill="#1890FF"/>
<path d="M0.717407 15.4924C0.329224 15.4924 0.0146484 15.8071 0.0146484 16.1953V18.284C0.0146484 18.672 0.329224 18.9868 0.717407 18.9868C1.10559 18.9868 1.42035 18.672 1.42035 18.284V16.1953C1.42035 15.8069 1.10559 15.4924 0.717407 15.4924Z" fill="#1890FF"/>
<path d="M1.42035 5.86981C1.42035 5.48181 1.10559 5.16705 0.717407 5.16705C0.329224 5.16705 0.0146484 5.48181 0.0146484 5.86981V7.95868C0.0146484 8.34668 0.329224 8.66144 0.717407 8.66144C1.10559 8.66144 1.42035 8.34668 1.42035 7.95868V5.86981Z" fill="#1890FF"/>
<path d="M23.9877 10.8481C23.9877 10.4599 23.673 10.1453 23.285 10.1453C22.8968 10.1453 22.582 10.4599 22.582 10.8481V12.9368C22.582 13.325 22.8968 13.6397 23.285 13.6397C23.673 13.6397 23.9877 13.325 23.9877 12.9368V10.8481Z" fill="#1890FF"/>
<path d="M23.9877 5.68542C23.9877 5.29724 23.673 4.98248 23.285 4.98248C22.8968 4.98248 22.582 5.29724 22.582 5.68542V7.77411C22.582 8.16229 22.8968 8.47687 23.285 8.47687C23.673 8.47687 23.9877 8.16229 23.9877 7.77411V5.68542Z" fill="#1890FF"/>
<path d="M23.285 15.308C22.8968 15.308 22.582 15.6226 22.582 16.0107V18.0994C22.582 18.4876 22.8968 18.8024 23.285 18.8024C23.673 18.8024 23.9877 18.4876 23.9877 18.0994V16.0107C23.9877 15.6226 23.673 15.308 23.285 15.308Z" fill="#1890FF"/>
<path d="M18.2065 6.81409C18.4605 6.40924 18.5894 5.9198 18.5894 5.35986C18.5894 4.83289 18.4666 4.36157 18.2243 3.95947C17.9216 3.45703 17.434 3.18036 16.8512 3.18036H7.33392C6.7511 3.18036 6.26349 3.45703 5.96082 3.95947C5.71857 4.36176 5.5957 4.83289 5.5957 5.35986C5.5957 5.92053 5.72461 6.40997 5.97839 6.81409C6.28894 7.30939 6.77032 7.58203 7.33392 7.58203H9.67145V18.9227C9.67145 19.5207 9.98108 20.0193 10.5434 20.3267C10.9839 20.5679 11.5052 20.6902 12.0925 20.6902C12.6793 20.6902 13.2006 20.5681 13.6417 20.3267C14.204 20.0191 14.5137 19.5203 14.5137 18.9227V7.58203H16.8512C17.4141 7.58203 17.8954 7.30957 18.2065 6.81409Z" fill="#1890FF"/>
</svg>
