<svg width="24" height="24" viewBox="0 0 24 24" fill="none" xmlns="http://www.w3.org/2000/svg">
<path d="M21.7215 10.3387L19.9777 10.1929C19.7727 9.28787 19.4143 8.42465 18.918 7.64061L20.0516 6.29999C20.3212 5.98076 20.4611 5.5719 20.4436 5.1544C20.426 4.7369 20.2523 4.34123 19.9568 4.04575C19.6613 3.75028 19.2657 3.57656 18.8482 3.55901C18.4307 3.54146 18.0218 3.68136 17.7026 3.95099L16.3627 5.08461C15.5781 4.58669 14.7138 4.22722 13.8075 4.02186L13.6616 2.27811C13.6272 1.86113 13.4373 1.47231 13.1296 1.18886C12.8218 0.905409 12.4187 0.748062 12.0003 0.748062C11.5819 0.748062 11.1788 0.905409 10.8711 1.18886C10.5633 1.47231 10.3734 1.86113 10.3391 2.27811L10.1932 4.02186C9.28821 4.22688 8.42499 4.58531 7.64095 5.08161L6.30033 3.95099C5.9811 3.68136 5.57224 3.54146 5.15474 3.55901C4.73724 3.57656 4.34157 3.75028 4.04609 4.04575C3.75062 4.34123 3.5769 4.7369 3.55935 5.1544C3.5418 5.5719 3.68169 5.98076 3.95133 6.29999L5.08495 7.63986C4.58742 8.42375 4.22797 9.28713 4.0222 10.1925L2.27658 10.3387C1.86039 10.3745 1.47278 10.5651 1.19044 10.873C0.908109 11.1809 0.751624 11.5835 0.751954 12.0012C0.752284 12.4189 0.909405 12.8213 1.19223 13.1287C1.47505 13.4361 1.86296 13.6262 2.2792 13.6612L4.02558 13.8071C4.23043 14.7122 4.58886 15.5754 5.08533 16.3594L3.95133 17.7C3.68169 18.0192 3.5418 18.4281 3.55935 18.8456C3.5769 19.2631 3.75062 19.6587 4.04609 19.9542C4.34157 20.2497 4.73724 20.4234 5.15474 20.441C5.57224 20.4585 5.9811 20.3186 6.30033 20.049L7.6402 18.9154C8.42409 19.4129 9.28747 19.7724 10.1928 19.9781L10.3387 21.7245C10.3745 22.1407 10.5653 22.5282 10.8732 22.8105C11.1811 23.0928 11.5838 23.2492 12.0015 23.2487C12.4192 23.2483 12.8216 23.0911 13.1289 22.8082C13.4363 22.5253 13.6262 22.1374 13.6612 21.7211L13.8071 19.9747C14.7121 19.7699 15.5754 19.4115 16.3593 18.915L17.7003 20.049C18.0196 20.3186 18.4284 20.4585 18.8459 20.441C19.2634 20.4234 19.6591 20.2497 19.9546 19.9542C20.25 19.6587 20.4238 19.2631 20.4413 18.8456C20.4589 18.4281 20.319 18.0192 20.0493 17.7L18.9157 16.3601C19.4134 15.5763 19.7729 14.7129 19.9785 13.8075L21.7248 13.6616C22.141 13.6258 22.5286 13.435 22.8108 13.1271C23.0931 12.8192 23.2495 12.4165 23.2491 11.9988C23.2487 11.5811 23.0914 11.1788 22.8086 10.8714C22.5257 10.5641 22.1377 10.3741 21.7215 10.3391V10.3387ZM12.0003 16.125C11.1845 16.125 10.387 15.8831 9.7086 15.4298C9.03025 14.9765 8.50154 14.3323 8.18933 13.5786C7.87711 12.8248 7.79542 11.9954 7.95459 11.1952C8.11375 10.3951 8.50662 9.66006 9.08351 9.08317C9.6604 8.50628 10.3954 8.11341 11.1956 7.95425C11.9958 7.79509 12.8252 7.87677 13.5789 8.18899C14.3326 8.5012 14.9769 9.02991 15.4301 9.70826C15.8834 10.3866 16.1253 11.1841 16.1253 12C16.1253 13.094 15.6907 14.1432 14.9171 14.9168C14.1436 15.6904 13.0943 16.125 12.0003 16.125Z" fill="black" fill-opacity="0.87"/>
</svg>
