<svg width="24" height="24" viewBox="0 0 24 24" fill="none" xmlns="http://www.w3.org/2000/svg">
<path d="M22.8293 3H0.585367C0.262068 3 0 3.26207 0 3.58537V7.09757C0 7.42087 0.262068 7.68294 0.585367 7.68294H22.8293C23.1526 7.68294 23.4146 7.42087 23.4146 7.09757V3.58537C23.4146 3.26207 23.1526 3 22.8293 3Z" fill="#FF4842"/>
<path d="M22.8283 9.43907H17.56C17.2367 9.43907 16.9746 9.70114 16.9746 10.0244V13.5366C16.9746 13.8599 17.2367 14.122 17.56 14.122H22.8283C23.1516 14.122 23.4136 13.8599 23.4136 13.5366V10.0244C23.4136 9.70114 23.1516 9.43907 22.8283 9.43907Z" fill="#FF4842"/>
<path d="M22.8283 15.878H17.56C17.2367 15.878 16.9746 16.1401 16.9746 16.4634V19.9756C16.9746 20.2989 17.2367 20.561 17.56 20.561H22.8283C23.1516 20.561 23.4136 20.2989 23.4136 19.9756V16.4634C23.4136 16.1401 23.1516 15.878 22.8283 15.878Z" fill="#FF4842"/>
<path d="M14.3415 9.43907H0.585367C0.262068 9.43907 0 9.70114 0 10.0244V19.9756C0 20.2989 0.262068 20.561 0.585367 20.561H14.3415C14.6648 20.561 14.9268 20.2989 14.9268 19.9756V10.0244C14.9268 9.70114 14.6648 9.43907 14.3415 9.43907Z" fill="#FF4842"/>
</svg>
