<svg width="24" height="24" viewBox="0 0 24 24" fill="none" xmlns="http://www.w3.org/2000/svg">
<g clip-path="url(#clip0)">
<path d="M23.5 9.99997H0.500016C0.200016 9.99997 0 10.2 0 10.5V17.5C0 18.9 1.10002 19.9999 2.49998 19.9999H21.5C22.9 19.9999 24 18.8999 24 17.5V10.5C24 10.2 23.8 9.99997 23.5 9.99997ZM3.50002 14H7.5C7.8 14 8.00002 14.2 8.00002 14.5C8.00002 14.8 7.8 15 7.5 15H3.50002C3.20002 15 3 14.8 3 14.5C3 14.2 3.20002 14 3.50002 14ZM10.5 17H3.50002C3.20002 17 3 16.8 3 16.5C3 16.2 3.20002 16 3.50002 16H10.5C10.8 16 11 16.2 11 16.5C11 16.8 10.8 17 10.5 17ZM19 17C18.6 17 18.3 16.9 18 16.7C17.7 16.9 17.4 17 17 17C15.9 17 15 16.1 15 15C15 13.9 15.9 13 17 13C17.4 13 17.7 13.0999 18 13.3C18.3 13.0999 18.6 13 19 13C20.1 13 21 13.9 21 15C21 16.1 20.1 17 19 17Z" fill="#54D62C"/>
<path d="M21.5 3.99997H2.49998C1.10002 3.99997 0 5.09998 0 6.5V7.49998C0 7.79998 0.200016 7.99999 0.500016 7.99999H23.5C23.8 7.99999 24 7.79998 24 7.49998V6.5C24 5.09998 22.9 3.99997 21.5 3.99997Z" fill="#54D62C"/>
</g>
<defs>
<clipPath id="clip0">
<rect width="24" height="24" fill="white"/>
</clipPath>
</defs>
</svg>
