<svg width="24" height="24" viewBox="0 0 24 24" fill="none" xmlns="http://www.w3.org/2000/svg">
<path d="M22.4145 7.58375C21.901 7.06982 21.0845 7.03752 20.5324 7.48738C20.4526 7.55244 20.5144 7.49511 19.2988 8.71072L22.4543 11.8662L23.5883 10.7463C24.1366 10.198 24.1366 9.3059 23.5883 8.75755L22.4145 7.58375Z" fill="#229A16"/>
<path d="M12.8284 15.2413L10.9722 19.2188C10.8472 19.4868 10.9031 19.8043 11.1122 20.0134C11.3213 20.2225 11.6389 20.2783 11.9067 20.1533L15.8843 18.2971C16.0416 18.2237 15.5652 18.6695 21.454 12.8543L18.3048 9.70503C12.4662 15.5437 12.9033 15.0808 12.8284 15.2413Z" fill="#229A16"/>
<path d="M17.0683 19.1611C16.8961 19.3312 16.6976 19.4692 16.4784 19.5715L12.5009 21.4277C11.7187 21.7927 10.7632 21.6538 10.1174 21.0078C9.49247 20.383 9.32367 19.4251 9.69736 18.6242L11.5536 14.6466C11.6578 14.4232 11.7991 14.2215 11.9734 14.0472L17.9531 8.06747V2.10938C17.9531 0.946266 17.0069 0 15.8438 0H2.10938C0.946266 0 0 0.946266 0 2.10938V21.8906C0 23.0537 0.946266 24 2.10938 24H15.8438C17.0069 24 17.9531 23.0537 17.9531 21.8906V18.2873L17.0683 19.1611ZM3.75005 4.54688H14.25C14.6384 4.54688 14.9532 4.86169 14.9532 5.25C14.9532 5.63831 14.6384 5.95312 14.25 5.95312H3.75005C3.36173 5.95312 3.04692 5.63831 3.04692 5.25C3.04692 4.86169 3.36173 4.54688 3.75005 4.54688ZM3.75005 8.29688H12C12.3884 8.29688 12.7032 8.61169 12.7032 9C12.7032 9.38831 12.3884 9.70312 12 9.70312H3.75005C3.36173 9.70312 3.04692 9.38831 3.04692 9C3.04692 8.61169 3.36173 8.29688 3.75005 8.29688ZM3.04692 12.75C3.04692 12.3617 3.36173 12.0469 3.75005 12.0469H9.75005C10.1384 12.0469 10.4532 12.3617 10.4532 12.75C10.4532 13.1383 10.1384 13.4531 9.75005 13.4531H3.75005C3.36173 13.4531 3.04692 13.1383 3.04692 12.75Z" fill="#229A16"/>
</svg>
